<?xml version="1.0" encoding="UTF-8"?><svg id="Layer_2" xmlns="http://www.w3.org/2000/svg" viewBox="0 0 67.15 41.95"><g id="Layer_1-2"><path d="M21.75,21.2c-.13,0-.23-.1-.23-.23,0-3.22,1.26-6.26,3.54-8.54,2.28-2.28,5.31-3.54,8.54-3.54,2.67,0,5.2.85,7.32,2.47,2.05,1.56,3.57,3.78,4.28,6.24.03.12-.03.25-.16.28-.12.03-.25-.03-.28-.16-1.43-4.94-6.02-8.39-11.16-8.39-6.41,0-11.62,5.21-11.62,11.62,0,.13-.1.23-.23.23Z" style="fill:#212121; stroke-width:0px;"/><path d="M33.6,33.05c-4.44,0-8.51-2.43-10.63-6.34-.06-.11-.02-.25.09-.31.11-.06.25-.02.31.09,2.03,3.76,5.95,6.1,10.23,6.1,5.06,0,9.51-3.23,11.06-8.05.04-.12.17-.18.29-.15.12.04.18.17.15.29-.78,2.41-2.27,4.49-4.32,6-2.09,1.55-4.57,2.36-7.17,2.36Z" style="fill:#212121; stroke-width:0px;"/><path d="M52.42,12.46c-.09,0-.17-.05-.21-.13C48.86,5.11,41.55.45,33.6.45c-5.67,0-10.95,2.26-14.87,6.37-.09.09-.23.09-.32,0-.09-.09-.09-.23,0-.32,1.94-2.04,4.22-3.64,6.79-4.76,2.66-1.16,5.48-1.75,8.41-1.75,4.07,0,8.02,1.17,11.42,3.38,3.31,2.15,5.94,5.18,7.6,8.75.05.11,0,.25-.11.3-.03.01-.06.02-.1.02Z" style="fill:#212121; stroke-width:0px;"/><path d="M33.6,41.95c-2.43,0-4.8-.41-7.06-1.22-2.19-.78-4.22-1.92-6.04-3.38-1.8-1.44-3.35-3.16-4.59-5.11-1.26-1.98-2.18-4.14-2.72-6.42-.03-.12.05-.24.17-.27.12-.03.24.05.27.17,2.2,9.29,10.41,15.78,19.97,15.78,11.32,0,20.52-9.21,20.52-20.52,0-.13.1-.23.23-.23s.23.1.23.23c0,2.83-.55,5.58-1.65,8.17-1.06,2.5-2.57,4.74-4.5,6.67-1.93,1.93-4.17,3.44-6.67,4.5-2.59,1.09-5.33,1.65-8.17,1.65Z" style="fill:#212121; stroke-width:0px;"/><text transform="translate(19.34 16.11) rotate(-67.61)" style="fill:#212121; font-family:ArialNarrow-Bold, Arial; font-size:3.38px; font-weight:700;"><tspan x="0" y="0">E</tspan></text><text transform="translate(20.8 13.04) rotate(-54.93)" style="fill:#212121; font-family:ArialNarrow-Bold, Arial; font-size:3.38px; font-weight:700;"><tspan x="0" y="0">L</tspan></text><text transform="translate(22.81 10.46) rotate(-41.92)" style="fill:#212121; font-family:ArialNarrow-Bold, Arial; font-size:3.38px; font-weight:700;"><tspan x="0" y="0">H</tspan></text><text transform="translate(25.55 8.24) rotate(-28.51)" style="fill:#212121; font-family:ArialNarrow-Bold, Arial; font-size:3.38px; font-weight:700;"><tspan x="0" y="0">A</tspan></text><text transform="translate(28.77 6.69) rotate(-14.25)" style="fill:#212121; font-family:ArialNarrow-Bold, Arial; font-size:3.38px; font-weight:700;"><tspan x="0" y="0">M</tspan></text><text transform="translate(32.58 5.98) rotate(-2.36)" style="fill:#212121; font-family:ArialNarrow-Bold, Arial; font-size:3.38px; font-weight:700;"><tspan x="0" y="0"> </tspan></text><text transform="translate(34.92 5.97) rotate(8.78)" style="fill:#212121; font-family:ArialNarrow-Bold, Arial; font-size:3.38px; font-weight:700;"><tspan x="0" y="0">C</tspan></text><text transform="translate(38.41 6.71) rotate(21.87)" style="fill:#212121; font-family:ArialNarrow-Bold, Arial; font-size:3.38px; font-weight:700;"><tspan x="0" y="0">L</tspan></text><text transform="translate(41.37 8.11) rotate(32.67)" style="fill:#212121; font-family:ArialNarrow-Bold, Arial; font-size:3.38px; font-weight:700;"><tspan x="0" y="0">I</tspan></text><text transform="translate(43.28 9.44) rotate(43.8)" style="fill:#212121; font-family:ArialNarrow-Bold, Arial; font-size:3.38px; font-weight:700;"><tspan x="0" y="0">N</tspan></text><text transform="translate(45.71 12.07) rotate(55.1)" style="fill:#212121; font-family:ArialNarrow-Bold, Arial; font-size:3.38px; font-weight:700;"><tspan x="0" y="0">I</tspan></text><text transform="translate(46.97 14.04) rotate(66.37)" style="fill:#212121; font-family:ArialNarrow-Bold, Arial; font-size:3.38px; font-weight:700;"><tspan x="0" y="0">C</tspan></text><text transform="translate(17.06 25.98) rotate(72.02)" style="fill:#212121; font-family:ArialMT, Arial; font-size:2.55px;"><tspan x="0" y="0"> </tspan></text><text transform="translate(17.56 27.46) rotate(65.15)" style="fill:#212121; font-family:ArialMT, Arial; font-size:2.55px;"><tspan x="0" y="0">S</tspan></text><text transform="translate(18.71 29.77) rotate(56.56)" style="fill:#212121; font-family:ArialMT, Arial; font-size:2.55px;"><tspan x="0" y="0">K</tspan></text><text transform="translate(20.17 31.85) rotate(49.78)" style="fill:#212121; font-family:ArialMT, Arial; font-size:2.55px;"><tspan x="0" y="0">I</tspan></text><text transform="translate(21.19 33.03) rotate(42.78)" style="fill:#212121; font-family:ArialMT, Arial; font-size:2.55px;"><tspan x="0" y="0">N</tspan></text><text transform="translate(23.23 34.79) rotate(35.76)" style="fill:#212121; font-family:ArialMT, Arial; font-size:2.55px;"><tspan x="0" y="0"> </tspan></text><text transform="translate(24.47 35.65) rotate(30.85)" style="fill:#212121; font-family:ArialMT, Arial; font-size:2.55px;"><tspan x="0" y="0">|</tspan></text><text transform="translate(25.74 36.37) rotate(25.9)" style="fill:#212121; font-family:ArialMT, Arial; font-size:2.55px;"><tspan x="0" y="0"> </tspan></text><text transform="translate(27.16 37.04) rotate(18.79)" style="fill:#212121; font-family:ArialMT, Arial; font-size:2.55px;"><tspan x="0" y="0">H</tspan></text><text transform="translate(29.75 37.84) rotate(9.95)" style="fill:#212121; font-family:ArialMT, Arial; font-size:2.55px;"><tspan x="0" y="0">A</tspan></text><text transform="translate(32.27 38.2) rotate(3.17)" style="fill:#212121; font-family:ArialMT, Arial; font-size:2.55px;"><tspan x="0" y="0">I</tspan></text><text transform="translate(33.84 38.27) rotate(-3.81)" style="fill:#212121; font-family:ArialMT, Arial; font-size:2.55px;"><tspan x="0" y="0">R</tspan></text><text transform="translate(36.49 38.01) rotate(-10.76)" style="fill:#212121; font-family:ArialMT, Arial; font-size:2.55px;"><tspan x="0" y="0"> </tspan></text><text transform="translate(37.98 37.69) rotate(-15.77)" style="fill:#212121; font-family:ArialMT, Arial; font-size:2.55px;"><tspan x="0" y="0">|</tspan></text><text transform="translate(39.38 37.26) rotate(-20.73)" style="fill:#212121; font-family:ArialMT, Arial; font-size:2.55px;"><tspan x="0" y="0"> </tspan></text><text transform="translate(40.85 36.68) rotate(-27.64)" style="fill:#212121; font-family:ArialMT, Arial; font-size:2.55px;"><tspan x="0" y="0">B</tspan></text><text transform="translate(43.08 35.44) rotate(-36.1)" style="fill:#212121; font-family:ArialMT, Arial; font-size:2.55px;"><tspan x="0" y="0">E</tspan></text><text transform="translate(45.13 33.86) rotate(-44.66)" style="fill:#212121; font-family:ArialMT, Arial; font-size:2.55px;"><tspan x="0" y="0">A</tspan></text><text transform="translate(46.92 32.01) rotate(-53.38)" style="fill:#212121; font-family:ArialMT, Arial; font-size:2.55px;"><tspan x="0" y="0">U</tspan></text><text transform="translate(48.48 29.78) rotate(-61.92)" style="fill:#212121; font-family:ArialMT, Arial; font-size:2.55px;"><tspan x="0" y="0">T</tspan></text><text transform="translate(49.57 27.62) rotate(-70.24)" style="fill:#212121; font-family:ArialMT, Arial; font-size:2.55px;"><tspan x="0" y="0">Y</tspan></text><path d="M66.98,19.81c-.14-.57-.37-1.12-.67-1.62-.29-.5-.65-.96-1.06-1.37-.2-.2-.43-.39-.66-.57-.23-.17-.47-.33-.71-.48-.99-.58-2.09-.92-3.2-1.08-.55-.08-1.11-.11-1.67-.1-.56.01-1.11.06-1.65.14-1.09.17-2.15.45-3.18.79-.51.17-1.03.36-1.53.57-.5.21-1,.44-1.48.69-.97.5-1.9,1.05-2.81,1.63-.46.29-.91.58-1.36.87-.45.29-.89.59-1.34.86-.45.27-.91.51-1.39.69-.24.09-.48.16-.73.21-.25.05-.49.08-.74.09-.06,0-.11,0-.17,0,.23-.49.38-.92.47-1.27.07-.24.12-.49.15-.74,0-.06,0-.09,0-.09.02-.29,0-.59-.09-.88-.09-.29-.26-.57-.5-.78-.24-.21-.55-.34-.85-.38-.31-.04-.62-.01-.91.09-.15.05-.29.11-.42.2-.13.08-.25.18-.36.3-.21.23-.36.51-.44.8-.08.29-.11.6-.07.9.03.3.12.59.25.86.27.55.74.96,1.26,1.22.2.1.4.18.61.23-.37.52-.68.84-.68.84-1.71,1.82-3.22,2.75-3.22,2.75,0,0,0,0,0,0-1.28.85-2.55,1.3-3.8,1.35h-.16c-2.22,0-3.27-1.24-3.16-3.73,1.62-.16,3.06-.7,4.3-1.62,1.89-1.35,2.81-2.87,2.76-4.54-.05-1.46-.89-2.19-2.52-2.19-1.89,0-3.54.81-4.95,2.43-1.53,1.81-2.23,3.75-2.12,5.82-1.34.46-2.73.8-4.14,1.02-1.57.24-3.17.33-4.75.22-.79-.05-1.57-.18-2.33-.38-.76-.2-1.51-.47-2.22-.82-.71-.35-1.38-.77-1.99-1.28-.51-.42-.97-.9-1.38-1.42.06-.32.18-1.28-.15-1.83l.09-.12c.37-.32,1.15-1.02,1.99-1.95,1.08-1.19,2.49-3.02,3.1-4.94.34-1.08.31-1.74-.08-2.02-.59-.42-1.79.3-2.32.67-.05-.76-.28-1.22-.67-1.38-.67-.27-1.58.43-2.01.82-.14-.66-.47-1.12-.98-1.38-1.65-.84-4.61.81-4.77.9-.06.03-.75.39-1.31,1.08-.52.63-1.01,1.64-.56,2.99-.25.02-.69.06-1.15.16-.98.21-1.55.55-1.7,1.02-.16.52.19,1.12,1.08,1.82-.61.23-1.89.82-1.92,1.62-.02.52.47.98,1.49,1.4,1.33.55,2.82.71,4.1.71.49,0,.95-.02,1.36-.06,1.4-.12,2.49-.37,2.74-.44.14.17.32.35.56.54.31.26.63.46.77.55.42.58.91,1.1,1.46,1.57.12.1.24.2.36.3-.07,0-.15,0-.22.01-.15.01-.3.03-.45.06-.59.12-1.15.33-1.68.57-.27.12-.52.26-.78.4-.26.14-.5.29-.75.45-.3.19-.6.4-.89.61-.18-.07-.53-.18-.79-.12-.2-.25-1.43-1.75-2.93-2.46-.49-.23-.82-.25-1.03-.06-.29.27-.16.87-.05,1.2-.42-.04-.72.05-.9.27-.36.46-.09,1.29.05,1.62-.5.26-.8.7-.84,1.26-.06.79.43,1.74,1.11,2.15.23.14.46.21.68.21.15,0,.29-.03.42-.09.12.34.41,1.05.89,1.13.03,0,.06,0,.08,0,.22,0,.44-.14.65-.41.16.17.44.42.74.42.03,0,.06,0,.09,0,.24-.04.42-.25.54-.61.37-1.16.78-3.48.8-3.57h0c.3-.18.57-.66.63-.77.3-.18.6-.36.9-.53.5-.28,1.01-.54,1.53-.76.26-.11.52-.21.79-.3.27-.09.54-.16.81-.21.14-.02.27-.04.41-.05.14,0,.27-.01.4,0,.15,0,.29.02.43.04.34.22.68.43,1.04.61.73.38,1.5.68,2.29.9.79.22,1.6.38,2.42.45,1.63.15,3.27.09,4.89-.13,1.4-.19,2.78-.5,4.12-.92,0,.03,0,.06.01.09.49,2.65,2.3,3.98,5.44,3.98,1.57,0,3.21-.59,4.93-1.78.06-.05,1.56-1.2,2.96-2.89.04-.05.09-.11.13-.18h0c.24-.33.44-.65.61-.95.16.02.31.03.47.02.29,0,.57-.04.85-.09.28-.05.55-.13.82-.23.53-.19,1.03-.44,1.5-.72.47-.27.92-.57,1.37-.86.45-.28.91-.57,1.36-.85.91-.56,1.83-1.09,2.78-1.55.47-.23.95-.45,1.44-.65.49-.2.98-.37,1.49-.53,1.01-.32,2.03-.57,3.06-.71.52-.07,1.03-.1,1.55-.11.51,0,1.03.04,1.53.12,1.01.16,1.99.49,2.84,1.02.21.13.42.27.61.43.19.15.38.32.55.5.34.35.64.75.88,1.18.48.85.72,1.84.62,2.78h0s0,.01,0,.01c-.02.3.2.56.5.58.3.02.56-.2.58-.5.05-.6,0-1.2-.15-1.77ZM32.57,17.61c.97-1.35,2.03-2.03,3.16-2.03.22,0,.41.03.57.08.86.43.89,1.35.08,2.76-1.14,2.06-3,3.25-5.6,3.57.22-1.57.81-3.03,1.79-4.38ZM14,10.23c.64-.47,1.73-1.07,2.12-.79.14.1.33.45-.05,1.65-.71,2.28-2.62,4.46-3.92,5.74.03-.04.05-.08.08-.12.17-.27.33-.54.5-.81.16-.27.32-.54.48-.82.32-.55.63-1.1.93-1.66.3-.56.6-1.11.89-1.67h-.02c-.32.53-.65,1.07-.98,1.61-.33.54-.67,1.07-1.02,1.6-.17.26-.35.53-.52.79-.07.11-.15.21-.22.32.8-1.66,1.72-3.97,1.73-5.83ZM1.61,18.59c-.85-.35-1.3-.73-1.28-1.09.02-.62,1.32-1.19,1.91-1.4,1.9,1.38,3.78,2.05,5.02,2.37.31.08.59.14.85.19-.48,0-.97-.03-1.46-.1-.49-.07-.97-.16-1.45-.27-.48-.11-.96-.24-1.43-.39.46.19.93.35,1.4.5.47.15.95.28,1.44.39.49.1.98.19,1.49.22.13,0,.27.01.4.01-1.59.27-4.53.55-6.89-.43ZM2.36,15.79c-.91-.67-1.33-1.24-1.21-1.64.21-.68,1.89-.92,2.65-.96.81,1.86,3.19,3.75,4.6,4.75-.16-.07-.32-.14-.48-.21-.54-.26-1.07-.56-1.59-.88-.52-.32-1.02-.66-1.52-1.02-.5-.35-.99-.72-1.46-1.1h-.01c.45.42.92.82,1.4,1.2.48.38.96.76,1.47,1.11.5.35,1.02.69,1.56.99.24.13.49.26.75.37-1.33-.21-3.74-.83-6.15-2.61ZM10.71,17.64s-.05.1-.07.15l.03.02s-.04,0-.06-.01c.04-.27.06-.55.06-.82,0-.17,0-.34,0-.51-.01-.17-.02-.34-.04-.51-.03-.34-.08-.67-.14-1-.06-.33-.12-.66-.2-.98-.15-.65-.34-1.29-.54-1.93-.1-.32-.21-.63-.33-.94-.11-.31-.23-.62-.36-.93h-.04c.22.64.41,1.28.59,1.91.17.64.32,1.29.44,1.93.06.32.11.65.15.98.04.33.07.65.08.98,0,.16,0,.33.01.49,0,.16,0,.32-.02.49-.02.29-.06.58-.12.86-.03,0-.07.02-.1.03-.09.03-.17.06-.24.09-.08-.06-.16-.13-.24-.19-.1-.08-.21-.17-.31-.26-.2-.17-.4-.35-.6-.54-.39-.37-.76-.76-1.1-1.18-.17-.21-.34-.42-.5-.64-.08-.11-.16-.22-.23-.33-.07-.11-.15-.22-.22-.34-.29-.46-.53-.94-.73-1.44h0c.17.52.38,1.02.64,1.5.06.12.13.24.2.36.07.12.14.24.21.35.14.23.3.46.46.68.32.44.67.87,1.04,1.27.18.2.37.4.57.59.1.1.2.19.3.29.06.06.12.11.18.16,0,0,0,.01,0,.02-.85-.55-4.48-3.01-5.4-5.3-.42-1.04-.28-2,.42-2.86.53-.65,1.21-1,1.22-1h0s2.96-1.66,4.46-.9c.48.25.77.73.85,1.44.34,2.95-.14,6.81-.32,8.01ZM11.37,9.67c.38-.37,1.3-1.12,1.83-.91.31.12.47.6.48,1.39.01,2.17-1.34,5.11-2.18,6.72.08-.21.15-.43.21-.64.1-.3.17-.6.25-.9.04-.15.07-.3.1-.45l.05-.23.04-.23.04-.23c.01-.08.03-.15.04-.23l.07-.46.06-.46c.02-.15.03-.31.05-.46.05-.62.08-1.24.05-1.85h0c-.01.62-.07,1.23-.16,1.84-.02.15-.05.3-.07.46l-.08.45-.1.45c-.02.08-.03.15-.05.22l-.06.22-.06.22-.06.22c-.04.15-.08.29-.13.44-.1.29-.19.58-.3.87-.06.18-.13.35-.2.52.2-1.7.45-4.6.19-6.97ZM3.52,21.76c.1-.1.36-.06.71.11,1.06.5,2.01,1.45,2.5,1.99-.05-.04-.1-.08-.15-.12-.2-.15-.4-.29-.61-.43-.21-.14-.42-.27-.63-.39-.11-.06-.22-.12-.33-.17-.11-.05-.24-.09-.36-.09h0c.12.02.24.07.35.12.11.05.22.12.32.18.21.13.41.27.61.42.16.12.31.24.47.37-.68-.3-1.71-.71-2.79-.94-.11-.31-.25-.88-.07-1.05ZM2.6,23.2c.14-.18.43-.22.86-.13,1.22.25,2.38.74,3.04,1.05-.07-.02-.14-.05-.2-.07-.27-.09-.54-.16-.82-.22-.14-.03-.28-.05-.42-.07-.07,0-.14-.02-.21-.02h-.11s-.11-.02-.11-.02h-.21s-.21-.01-.21-.01c-.04,0-.07,0-.11,0h-.11s-.21.02-.21.02h0s.21.01.21.01h.11s.07,0,.11,0h.21s.21.03.21.03h.1s.1.03.1.03c.07.01.14.02.21.03.14.03.27.05.41.09.26.06.51.14.76.24-.87-.1-2.25-.13-3.53.37-.14-.35-.33-1.02-.09-1.32ZM5.29,28.58c-.14.21-.35.46-.56.43-.29-.04-.55-.59-.68-.98.92-.59,2.03-1.58,2.71-2.22-.01.02-.02.04-.03.05-.17.27-.34.53-.52.79-.18.26-.37.52-.57.76-.2.25-.4.49-.65.69h0c.25-.19.47-.42.68-.66.21-.24.41-.49.6-.74.19-.25.38-.51.56-.77.01-.02.03-.04.04-.06-.41.75-1.03,1.86-1.59,2.72ZM6.28,28.33c.08-.12.15-.25.21-.38.06-.13.12-.26.17-.39.11-.27.21-.53.31-.8,0-.01,0-.03.01-.04-.14.67-.31,1.4-.47,1.9-.06.17-.15.39-.31.42-.2.03-.47-.22-.61-.38.53-.81,1.1-1.83,1.49-2.55-.06.21-.12.42-.19.63-.09.27-.18.55-.27.81-.05.13-.1.27-.15.4-.05.13-.12.26-.19.39h0ZM3.8,27.84c-.37.23-.73.11-.97-.04-.59-.36-1.02-1.19-.97-1.88.03-.35.18-.82.8-1.08,1.72-.73,3.74-.39,4.24-.29-.17.02-.35.05-.52.07-.22.03-.44.07-.66.12-.44.08-.88.19-1.3.31h0c.43-.09.87-.17,1.32-.23.22-.03.44-.06.66-.08.2-.02.39-.04.59-.05,0,.02,0,.04.01.05,0,.03.02.07.03.1-.23.16-.48.32-.72.48-.26.17-.53.33-.8.48-.27.16-.54.3-.82.44-.28.14-.56.27-.84.4v.02c.3-.11.59-.23.87-.36.28-.13.56-.27.84-.41.28-.15.55-.3.82-.45.24-.14.48-.29.72-.44,0,.02.02.03.03.05-.35.34-2.07,2.02-3.32,2.79ZM41.37,20.85c-.22-.11-.42-.24-.6-.4-.18-.16-.32-.35-.43-.56-.21-.42-.28-.92-.16-1.37.03-.11.07-.22.13-.32.05-.1.12-.2.19-.28.07-.08.16-.15.26-.22.1-.06.2-.11.31-.15.22-.08.45-.1.68-.07.22.03.44.12.6.26.02.02.04.04.06.05.02.02.04.04.06.06.04.04.07.09.1.13.06.09.11.2.14.31.07.22.09.46.08.71-.01.25-.06.5-.13.74-.07.25-.16.49-.26.72-.01.03-.03.06-.04.09-.09.18-.19.36-.29.52-.24-.05-.47-.13-.69-.23Z" style="fill:#212121; stroke-width:0px;"/></g></svg>